<svg xmlns="http://www.w3.org/2000/svg" fill="none" viewBox="0 0 128 128">
    <path d="M100 24.0232V19.128C100 18.2218 99.7054 17.4731 99.1167 16.8823C98.5248 16.2946 97.7771 16 96.872 16H31.1494C30.1034 16 29.3802 16.2946 28.8356 16.8823C28.7585 16.9668 28.7287 17.0865 28.6617 17.179C28.4995 17.4034 28.3336 17.6246 28.2352 17.899C28.0879 18.3277 28.0204 18.709 28.0204 19.1275V24.0237C28.0204 24.9299 28.3128 25.6552 28.9047 26.1998C29.4913 26.7438 30.239 27.015 31.1483 27.015H50.4202C61.732 27.015 68.3566 30.9561 70.3251 38.8086H31.147C30.2386 38.8086 29.4899 39.1043 28.9023 39.693C28.3115 40.2828 28.019 41.0305 28.019 41.9377V46.8297C28.019 47.7391 28.3115 48.4645 28.9034 49.009C29.4899 49.552 30.2376 49.8221 31.1469 49.8221H70.2774C70.1078 50.4997 69.9089 51.1543 69.6707 51.7738C69.4048 52.4253 69.224 52.8114 69.0288 53.1863C68.9613 53.3187 68.8943 53.4543 68.8214 53.5846C68.6486 53.8925 68.4614 54.1861 68.2657 54.4764C68.1641 54.6322 68.0679 54.796 67.9588 54.9455C67.87 55.0683 67.7685 55.1784 67.6727 55.297L67.6722 55.2954C66.9293 56.2446 66.0603 57.0881 65.0887 57.8017C61.7798 60.198 57.2256 61.4125 51.3672 61.5333H31.1301C30.2218 61.5333 29.473 61.8268 28.8854 62.4155C28.2957 63.0048 28 63.7525 28 64.6613V70.4456C28 70.9885 28.0415 71.2438 28.1143 71.4496C28.1484 71.5437 28.1883 71.6278 28.234 71.7251C28.2765 71.8107 28.3143 71.8883 28.3568 71.9633C28.5419 72.2515 28.611 72.351 28.6701 72.4249L28.8344 72.6312C28.904 72.719 30.015 73.7672 31.4572 75.1195C33.7786 77.2871 36.1008 79.453 38.4249 81.6174L66.6057 109.119C67.422 109.755 68.191 110.277 68.9184 110.683C69.6438 111.092 70.6394 111.297 71.9098 111.297H78.9821C79.7064 111.297 80.3419 111.025 80.8859 110.482C81.4289 109.938 81.7033 109.302 81.7033 108.576C81.7033 107.852 81.4725 107.217 81.0215 106.672L54.0496 79.9058L46.8029 72.7116L51.7837 72.5696C56.4321 72.4425 60.8018 71.7996 64.7085 70.6488C68.798 69.4438 72.3791 67.6862 75.1996 65.3463C78.1687 62.8815 80.3777 59.8422 81.8386 56.2442C82.079 55.6545 82.2789 55.037 82.4773 54.4153C82.5682 54.1398 82.674 53.8734 82.757 53.5916C83.1107 52.3833 83.4106 51.1383 83.6105 49.8201H96.8325C97.7376 49.8201 98.4843 49.5499 99.0772 49.007C99.6659 48.4629 99.9605 47.7365 99.9605 46.8287V41.9347C99.9605 41.0285 99.6659 40.2809 99.0761 39.6911C98.4853 39.1024 97.7376 38.8067 96.8325 38.8067H83.5967C82.9011 34.203 81.3127 30.2682 78.8212 27.0142H96.8719C97.7759 27.0142 98.5237 26.7419 99.1155 26.199C99.7042 25.6539 99.9988 24.9285 99.9988 24.0218L100 24.0232Z" />
    <style>
        path { fill: #000; }
        @media (prefers-color-scheme: dark) {
            path { fill: #FFF; }
        }
    </style>
</svg>
